<svg id="Group_4" data-name="Group 4" xmlns="http://www.w3.org/2000/svg" xmlns:xlink="http://www.w3.org/1999/xlink" width="122" height="70.059" viewBox="0 0 122 70.059">
  <defs>
    <clipPath id="clip-path">
      <rect id="Rectangle_8" data-name="Rectangle 8" width="122" height="70.059" fill="#fff"/>
    </clipPath>
  </defs>
  <g id="Group_3" data-name="Group 3" clip-path="url(#clip-path)">
    <path id="Path_13" data-name="Path 13" d="M10.069,31.969,2.388,6.146a4.775,4.775,0,0,0-.652-1.453A3.118,3.118,0,0,0,.521,3.845L0,3.63V3.2H11.5V3.63l-.911.346a2.651,2.651,0,0,0-1.345.955A1.9,1.9,0,0,0,9.2,6.494l4.731,18.052L19.052,9.4l-1-3.082a8.931,8.931,0,0,0-.565-1.388,1.92,1.92,0,0,0-.867-.78l-.955-.521V3.2H26.561V3.63l-1.345.521q-.869.3-.977.889a3.1,3.1,0,0,0,.2,1.5l5.511,18.445,5.208-18.1a4.786,4.786,0,0,0,.217-1.822q-.088-.781-1.086-1.129l-.911-.3V3.2h6.032V3.63l-1.129.433a2.074,2.074,0,0,0-1.215.955,7.8,7.8,0,0,0-.607,1.6l-7.2,25.346H26.257l-6.511-20.4-6.682,20.4Z" transform="translate(0 -1.415)" fill="#fff"/>
    <path id="Path_14" data-name="Path 14" d="M69.594,38.148a6.384,6.384,0,0,1-4.233-1.432,5.07,5.07,0,0,1-1.712-4.123,4.877,4.877,0,0,1,2.082-3.755,14.886,14.886,0,0,1,6.553-2.581q.694-.13,1.563-.282c.579-.1,1.187-.211,1.822-.325V22.22a8.627,8.627,0,0,0-.715-4.144,2.425,2.425,0,0,0-2.235-1.194,2.117,2.117,0,0,0-1.649.673,4.147,4.147,0,0,0-.78,2.322l-.086.477a4.168,4.168,0,0,1-.911,2.736,2.7,2.7,0,0,1-2.04.867,2.611,2.611,0,0,1-1.866-.694,2.434,2.434,0,0,1-.738-1.866A4.028,4.028,0,0,1,65.883,18.4a7.733,7.733,0,0,1,3.277-1.824,15.464,15.464,0,0,1,4.427-.608,8.642,8.642,0,0,1,5.967,1.888q2.1,1.888,2.105,6.142V33.59q0,1.952,1.822,1.953h.955l.39.348a6.431,6.431,0,0,1-1.8,1.6,5.563,5.563,0,0,1-2.757.563,4.69,4.69,0,0,1-3.016-.888A4.158,4.158,0,0,1,75.8,34.805a18.175,18.175,0,0,1-2.668,2.366,5.962,5.962,0,0,1-3.537.977M72.242,35.5a3.347,3.347,0,0,0,1.627-.413,11.464,11.464,0,0,0,1.8-1.28V26.516l-.867.175c-.29.058-.623.115-1,.173a6.65,6.65,0,0,0-3.189,1.757,4.579,4.579,0,0,0-1.194,3.32,3.809,3.809,0,0,0,.825,2.67,2.622,2.622,0,0,0,2,.89" transform="translate(-28.193 -7.074)" fill="#fff"/>
    <path id="Path_15" data-name="Path 15" d="M103.225,30.422v-.435l.521-.173a2.1,2.1,0,0,0,1.563-2.17V4.426a2.158,2.158,0,0,0-.348-1.325,2.128,2.128,0,0,0-1.215-.673l-.563-.129V1.866L111.124,0l.521.39-.173,6.076V21.308q0,1.605.021,3.189c.014,1.058.021,2.105.021,3.147a2.576,2.576,0,0,0,.348,1.41,2.061,2.061,0,0,0,1.17.8l.565.129v.435Z" transform="translate(-45.704 0)" fill="#fff"/>
    <path id="Path_16" data-name="Path 16" d="M124.125,30.422v-.435l.65-.217a2.015,2.015,0,0,0,1.476-2.126V4.426a2.057,2.057,0,0,0-.348-1.3,2.408,2.408,0,0,0-1.215-.7l-.563-.129V1.866L132.066,0l.521.39-.131,6.076V27.645a2,2,0,0,0,1.432,2.17l.607.173v.435Zm16.1,0L132.5,19.572l8.028-7.42a2.033,2.033,0,0,0,.673-1.107q.109-.586-.759-.846l-.738-.217V9.547h6.467v.435l-1.3.346a5.637,5.637,0,0,0-1.54.717,16.1,16.1,0,0,0-1.411,1.15l-4.861,4.558,7.768,10.805a8.568,8.568,0,0,0,1.3,1.476,5,5,0,0,0,1.561.867l.175.086v.435Z" transform="translate(-54.981 0)" fill="#fff"/>
    <path id="Path_17" data-name="Path 17" d="M177.375,40.07a4.454,4.454,0,0,1-3.091-.995,4.07,4.07,0,0,1-1.1-3.17V25.279h-2.144v-.31l.746-.125a5.9,5.9,0,0,0,1.662-.621,6.8,6.8,0,0,0,1.383-1.087l2.547-2.828h.311l-.094,4.35h3.48v.621h-3.512V36.465a2.457,2.457,0,0,0,.481,1.646,1.55,1.55,0,0,0,1.228.56,2.044,2.044,0,0,0,1.149-.326,5.068,5.068,0,0,0,.995-.886l.311.311a4.578,4.578,0,0,1-1.709,1.677,5.239,5.239,0,0,1-2.641.622" transform="translate(-75.76 -8.995)" fill="#fff"/>
    <path id="Path_18" data-name="Path 18" d="M197.462,43.157a8.221,8.221,0,0,1-4.1-.98,6.685,6.685,0,0,1-2.688-2.78,8.945,8.945,0,0,1-.947-4.225,8.322,8.322,0,0,1,1.01-4.195,7.01,7.01,0,0,1,2.765-2.735,8.65,8.65,0,0,1,7.906-.015,6.925,6.925,0,0,1,2.75,2.718,8.391,8.391,0,0,1,1.01,4.226,8.943,8.943,0,0,1-.947,4.24,6.741,6.741,0,0,1-2.673,2.765,8.133,8.133,0,0,1-4.086.98m0-.622a2.42,2.42,0,0,0,1.741-.621,4.073,4.073,0,0,0,.947-2.206,25.889,25.889,0,0,0,.3-4.474,26.127,26.127,0,0,0-.3-4.505,4.073,4.073,0,0,0-.947-2.206,2.425,2.425,0,0,0-1.741-.621,2.477,2.477,0,0,0-1.755.621,3.983,3.983,0,0,0-.964,2.206,26.129,26.129,0,0,0-.3,4.505,25.89,25.89,0,0,0,.3,4.474,3.983,3.983,0,0,0,.964,2.206,2.472,2.472,0,0,0,1.755.621" transform="translate(-84.038 -12.083)" fill="#fff"/>
    <path id="Path_19" data-name="Path 19" d="M17.952,81.616a3.573,3.573,0,0,1-2.481-.8,3.264,3.264,0,0,1-.886-2.544v-8.53H12.863v-.248l.6-.1a4.732,4.732,0,0,0,1.335-.5,5.453,5.453,0,0,0,1.11-.873l2.045-2.27h.25l-.075,3.492H20.92v.5H18.1v8.98a1.971,1.971,0,0,0,.387,1.321,1.245,1.245,0,0,0,.985.45,1.643,1.643,0,0,0,.922-.262,4.112,4.112,0,0,0,.8-.711l.25.25a3.682,3.682,0,0,1-1.372,1.347,4.213,4.213,0,0,1-2.12.5" transform="translate(-5.698 -29.125)" fill="#fff"/>
    <path id="Path_20" data-name="Path 20" d="M28.292,79.655v-.25l.3-.1a1.2,1.2,0,0,0,.9-1.247V64.741a1.366,1.366,0,0,0-.175-.773,1.123,1.123,0,0,0-.673-.374l-.374-.1v-.25l4.39-1.073.4.224-.1,3.518v3.117A10.094,10.094,0,0,1,34.839,67.8a4.872,4.872,0,0,1,2.233-.511,3.57,3.57,0,0,1,2.581.924,3.781,3.781,0,0,1,.96,2.843v7.034a1.414,1.414,0,0,0,.2.8,1.228,1.228,0,0,0,.7.45l.2.074v.25H35.874v-.25l.3-.074a1.222,1.222,0,0,0,.9-1.273V70.227a2.088,2.088,0,0,0-.337-1.371,1.542,1.542,0,0,0-1.184-.374,3.884,3.884,0,0,0-1.2.212,4.421,4.421,0,0,0-1.321.736v8.679a1.181,1.181,0,0,0,.9,1.247l.2.05v.25Z" transform="translate(-12.521 -27.538)" fill="#fff"/>
    <path id="Path_21" data-name="Path 21" d="M58.559,71.35a5.467,5.467,0,0,1,2.769.661,4.518,4.518,0,0,1,1.759,1.8,5.364,5.364,0,0,1,.611,2.582c0,.183-.009.369-.026.562a2.218,2.218,0,0,1-.1.51H56.14a6.409,6.409,0,0,0,.96,3.879,3.331,3.331,0,0,0,2.782,1.184,4.41,4.41,0,0,0,2.019-.4,4.941,4.941,0,0,0,1.447-1.172l.248.224a5.737,5.737,0,0,1-2.057,2.146,5.879,5.879,0,0,1-3.081.773,6.369,6.369,0,0,1-3.143-.761,5.365,5.365,0,0,1-2.144-2.182,7,7,0,0,1-.774-3.393,6.426,6.426,0,0,1,.9-3.479A6.029,6.029,0,0,1,55.6,72.1a6.21,6.21,0,0,1,2.955-.749m-.075.5a1.835,1.835,0,0,0-1.234.436,2.991,2.991,0,0,0-.8,1.547,13.852,13.852,0,0,0-.311,3.13h4.265a9.688,9.688,0,0,0-.2-3.916,1.7,1.7,0,0,0-1.721-1.2" transform="translate(-23.21 -31.604)" fill="#fff"/>
    <path id="Path_22" data-name="Path 22" d="M95.628,97.7a24.636,24.636,0,0,1-5.682-.683,17.873,17.873,0,0,1-4.819-1.8l.253-6.9h.508l1.573,3.3a16.678,16.678,0,0,0,1.521,2.512,5.332,5.332,0,0,0,2.231,1.7,7.452,7.452,0,0,0,1.955.685,11.412,11.412,0,0,0,2.1.178,6.9,6.9,0,0,0,4.9-1.674,5.627,5.627,0,0,0,1.8-4.312,5.71,5.71,0,0,0-1.218-3.88A12.463,12.463,0,0,0,96.844,84.1l-2.078-.912a21.769,21.769,0,0,1-6.823-4.44,9.116,9.116,0,0,1-2.46-6.67,8.7,8.7,0,0,1,1.548-5.172,9.8,9.8,0,0,1,4.312-3.348,16.525,16.525,0,0,1,6.466-1.168,17.9,17.9,0,0,1,5.1.712,14.712,14.712,0,0,1,4.186,1.926l-.306,6.089h-.507L104.2,67.312a7.817,7.817,0,0,0-1.725-2.51,5.08,5.08,0,0,0-1.978-1.041,7.713,7.713,0,0,0-1.218-.279,10.663,10.663,0,0,0-1.42-.076A6.546,6.546,0,0,0,93.5,64.9a5.005,5.005,0,0,0-1.775,4.033,6,6,0,0,0,1.371,4.134A11.943,11.943,0,0,0,97.1,75.834l2.334,1.016a20.067,20.067,0,0,1,7,4.538,9.791,9.791,0,0,1-1.242,13.492q-3.375,2.818-9.56,2.815" transform="translate(-37.707 -27.636)" fill="#fff"/>
    <path id="Path_23" data-name="Path 23" d="M142.316,79.116a11.11,11.11,0,0,1,5.631,1.346,9.19,9.19,0,0,1,3.576,3.651,10.913,10.913,0,0,1,1.243,5.251c0,.372-.019.751-.052,1.141a4.471,4.471,0,0,1-.2,1.038H137.4q.05,5.48,1.952,7.888a6.774,6.774,0,0,0,5.657,2.409,8.974,8.974,0,0,0,4.107-.811,10.058,10.058,0,0,0,2.943-2.384l.506.456a11.672,11.672,0,0,1-4.184,4.363,11.949,11.949,0,0,1-6.264,1.573,12.945,12.945,0,0,1-6.392-1.548,10.9,10.9,0,0,1-4.361-4.438,14.239,14.239,0,0,1-1.573-6.9,13.069,13.069,0,0,1,1.827-7.075,12.258,12.258,0,0,1,4.691-4.438,12.633,12.633,0,0,1,6.01-1.523m-.153,1.015a3.729,3.729,0,0,0-2.51.887,6.083,6.083,0,0,0-1.624,3.146,28.213,28.213,0,0,0-.634,6.365h8.675q.5-5.529-.407-7.965a3.446,3.446,0,0,0-3.5-2.433" transform="translate(-57.489 -35.044)" fill="#fff"/>
    <path id="Path_24" data-name="Path 24" d="M181.523,105.037a7.462,7.462,0,0,1-4.947-1.674,5.926,5.926,0,0,1-2-4.819,5.7,5.7,0,0,1,2.433-4.388q2.437-2,7.66-3.018.811-.151,1.827-.33c.677-.118,1.387-.246,2.13-.379V86.42a10.085,10.085,0,0,0-.836-4.844,2.835,2.835,0,0,0-2.613-1.4,2.472,2.472,0,0,0-1.927.787,4.844,4.844,0,0,0-.912,2.714l-.1.557a4.871,4.871,0,0,1-1.065,3.2,3.158,3.158,0,0,1-2.384,1.013,3.053,3.053,0,0,1-2.182-.811,2.848,2.848,0,0,1-.862-2.181,4.709,4.709,0,0,1,1.444-3.5,9.038,9.038,0,0,1,3.831-2.132,18.061,18.061,0,0,1,5.174-.71q4.514,0,6.974,2.206t2.46,7.178V99.71q0,2.282,2.13,2.283h1.116l.456.407a7.508,7.508,0,0,1-2.105,1.876,6.5,6.5,0,0,1-3.222.658,5.483,5.483,0,0,1-3.525-1.038,4.859,4.859,0,0,1-1.7-2.766,21.186,21.186,0,0,1-3.119,2.766,6.964,6.964,0,0,1-4.134,1.141m3.094-3.094a3.911,3.911,0,0,0,1.9-.483,13.38,13.38,0,0,0,2.105-1.5V91.442l-1.013.2c-.338.068-.729.134-1.168.2a7.765,7.765,0,0,0-3.727,2.053,5.349,5.349,0,0,0-1.4,3.88,4.452,4.452,0,0,0,.964,3.121,3.063,3.063,0,0,0,2.334,1.04" transform="translate(-77.327 -35.044)" fill="#fff"/>
  </g>
</svg>
