<svg id="brand-twitter" xmlns="http://www.w3.org/2000/svg" width="54.947" height="54.947" viewBox="0 0 54.947 54.947">
  <path id="Path_33" data-name="Path 33" d="M0,0H54.947V54.947H0Z" fill="none"/>
  <path id="Path_34" data-name="Path 34" d="M47.789,4.153a41.08,41.08,0,0,1-6.868,2.267c-2.566-2.9-6.372-3.056-10.028-1.687a9,9,0,0,0-6,8.556v2.289A21.5,21.5,0,0,1,6.579,6.419S-3,23.437,15.737,31.6C11.451,34.458,7.177,36.384,2,36.182c7.574,4.128,15.827,5.547,22.973,3.473A25.194,25.194,0,0,0,42.489,21.93a31.686,31.686,0,0,0,1.138-8.592c0-.57,3.457-6.346,4.162-9.188Z" transform="translate(2.579 5.028)" fill="none" stroke="#ccd0d9" stroke-linecap="round" stroke-linejoin="round" stroke-width="3"/>
</svg>
