<svg xmlns="http://www.w3.org/2000/svg" width="74.906" height="94.251" viewBox="0 0 74.906 94.251">
  <g id="noun-map-pin-1037254" transform="translate(2.113 2.101)">
    <path id="Path_40" data-name="Path 40" d="M-869.549,972.865a35.226,35.226,0,0,0-47.28-15.665c-17.374,8.734-24.115,30.665-15.665,47.28,3.987,7.88,20.6,28.387,27.912,37.406a4.562,4.562,0,0,0,7.121,0c7.31-9.019,23.735-29.526,28.007-37.406C-864.137,994.8-864.327,983.214-869.549,972.865Zm-31.425,34.273A18.335,18.335,0,0,1-919.3,988.815a18.274,18.274,0,0,1,18.323-18.324,18.334,18.334,0,0,1,18.323,18.324A18.274,18.274,0,0,1-900.973,1007.138Z" transform="translate(936.124 -953.445)" fill="none" stroke="#fff" stroke-width="4"/>
  </g>
</svg>
